<?xml version="1.0" standalone="no"?>
<!DOCTYPE svg PUBLIC "-//W3C//DTD SVG 20010904//EN"
 "http://www.w3.org/TR/2001/REC-SVG-20010904/DTD/svg10.dtd">
<svg version="1.0" xmlns="http://www.w3.org/2000/svg"
 width="512.000000pt" height="512.000000pt" viewBox="0 0 512.000000 512.000000"
 preserveAspectRatio="xMidYMid meet">
<metadata>
Created by potrace 1.14, written by Peter Selinger 2001-2017
</metadata>
<g transform="translate(0.000000,512.000000) scale(0.100000,-0.100000)"
fill="#000000" stroke="none">
<path d="M195 4699 c-44 -23 -60 -38 -90 -84 -20 -30 -20 -51 -23 -1633 -1
-1060 1 -1617 8 -1642 5 -20 25 -53 44 -73 66 -70 20 -67 907 -67 l799 0 0
-199 0 -200 -221 -3 -220 -3 -20 -25 c-18 -23 -19 -39 -17 -177 3 -131 6 -155
21 -170 17 -17 80 -18 1160 -21 628 -1 1152 0 1164 3 44 11 55 53 51 211 -3
121 -6 146 -21 161 -16 16 -42 18 -237 21 l-220 3 0 199 0 200 813 2 814 3 41
29 c23 16 52 45 65 65 l22 36 3 1603 c1 1097 -1 1616 -8 1643 -14 49 -79 115
-128 129 -25 7 -796 10 -2352 10 l-2315 0 -40 -21z m4673 -151 c17 -17 17
-3159 0 -3176 -17 -17 -4599 -17 -4616 0 -17 17 -17 3159 0 3176 17 17 4599
17 4616 0z m-1748 -3548 l0 -200 -560 0 -560 0 0 200 0 200 560 0 560 0 0
-200z m480 -400 l0 -40 -1040 0 -1040 0 0 40 0 40 1040 0 1040 0 0 -40z"/>
<path d="M1401 3904 c-65 -17 -154 -64 -197 -103 -51 -46 -110 -132 -135 -196
l-24 -60 -3 -568 c-3 -662 -5 -645 82 -732 75 -75 116 -86 323 -84 200 1 256
18 324 98 46 53 66 112 68 205 3 91 9 112 46 146 l27 25 649 0 649 0 32 -32
c30 -31 32 -36 38 -136 8 -125 30 -178 97 -237 67 -58 117 -70 303 -70 201 0
244 11 315 84 87 90 85 74 84 711 0 436 -4 561 -15 602 -44 168 -178 302 -345
347 -81 22 -2237 22 -2318 0z m818 -254 c28 -82 41 -107 61 -117 18 -9 98 -13
288 -13 310 0 285 -11 337 140 l32 95 370 0 c251 0 378 -4 394 -11 13 -6 37
-18 53 -25 44 -21 108 -88 136 -144 l25 -50 0 -567 0 -568 -33 -32 -32 -33
-170 0 -170 0 -32 32 c-30 31 -32 36 -39 140 -8 125 -28 173 -96 233 -81 71
-69 70 -782 70 -736 0 -710 3 -796 -83 -61 -62 -81 -114 -84 -219 -2 -89 -15
-127 -50 -153 -24 -18 -41 -20 -193 -20 l-168 0 -32 33 -33 32 0 568 0 567 24
47 c40 82 108 142 191 171 38 14 99 16 404 14 l359 -2 36 -105z m537 73 l-13
-38 -183 0 -183 0 -13 38 -13 37 209 0 209 0 -13 -37z"/>
<path d="M1722 3594 c-28 -12 -42 -63 -42 -149 l0 -85 -95 0 c-81 0 -98 -3
-115 -20 -41 -41 -33 -112 15 -130 15 -6 64 -10 110 -10 l83 0 4 -100 c4 -117
14 -135 79 -135 63 0 79 28 79 143 l0 92 83 0 c45 0 92 3 104 6 34 9 56 50 48
90 -9 49 -44 64 -149 64 l-84 0 -4 100 c-2 73 -7 103 -19 115 -16 17 -75 28
-97 19z"/>
<path d="M3150 3500 c-26 -26 -33 -60 -21 -93 13 -33 46 -47 112 -47 93 0 136
45 109 111 -16 38 -44 49 -121 49 -45 0 -64 -5 -79 -20z"/>
<path d="M3474 3502 c-12 -9 -25 -27 -29 -40 -9 -32 13 -82 42 -93 27 -10 106
-12 140 -3 59 16 68 110 13 139 -41 21 -139 19 -166 -3z"/>
<path d="M2270 3180 c-26 -26 -33 -60 -21 -93 13 -33 46 -47 112 -47 90 0 133
42 112 107 -13 38 -46 53 -120 53 -50 0 -67 -4 -83 -20z"/>
<path d="M2674 3182 c-12 -9 -25 -27 -29 -40 -9 -32 13 -82 42 -93 27 -10 106
-12 140 -3 59 16 68 110 13 139 -41 21 -139 19 -166 -3z"/>
<path d="M3154 3182 c-12 -9 -25 -27 -29 -40 -9 -32 13 -82 42 -93 27 -10 106
-12 140 -3 59 16 68 110 13 139 -41 21 -139 19 -166 -3z"/>
<path d="M3470 3180 c-43 -43 -35 -111 16 -130 14 -6 52 -10 85 -10 45 0 64 5
79 20 26 26 33 60 21 93 -13 34 -46 47 -122 47 -45 0 -64 -5 -79 -20z"/>
<path d="M2048 1593 c-55 -14 -61 -111 -8 -138 45 -23 1009 -22 1045 1 48 31
36 123 -17 138 -26 6 -994 6 -1020 -1z"/>
</g>
</svg>
